<svg width="89" height="89" viewBox="0 0 89 89" fill="none" xmlns="http://www.w3.org/2000/svg">
<g clip-path="url(#clip0)">
<path d="M41.6525 87.4402C30.047 84.8939 27.2051 84.5513 17.1927 84.4916C7.14397 84.4317 1.91879 83.2178 0.959869 80.7207C-0.274671 77.5058 -0.324423 70.2995 0.845783 64.1942C1.84003 59.0069 2.09997 52.237 2.09997 31.53V5.40937L4.28175 2.96924L6.46352 0.529107L24.4496 0.145784C38.8676 -0.161495 43.0554 -0.0142214 45.5594 0.888167C48.138 1.81738 49.3222 1.84543 52.344 1.04885C57.3348 -0.266792 80.5984 0.64908 83.9432 2.29289C86.8442 3.71862 88.9498 7.84539 88.9995 12.2027C89.0203 14.0156 88.3524 18.4333 87.5155 22.02C85.5573 30.4123 85.1586 49.3264 86.7113 60.1716C87.1119 62.9697 87.4467 69.1599 87.4552 73.9276C87.47 82.1978 87.3797 82.6817 85.4904 84.4554C84.0566 85.8014 82.1653 86.4699 78.6372 86.8774C75.9572 87.1871 71.121 87.8098 67.8903 88.2613C59.1685 89.4801 49.5826 89.1801 41.6525 87.4402H41.6525ZM77.7579 76.1272C79.223 75.4325 80.4217 74.3575 80.4217 73.7384C80.4217 72.8054 79.2844 72.7049 73.7773 73.1515C68.9343 73.5442 66.8133 73.4251 65.9538 72.7123C63.8554 70.972 65.5963 70.2084 71.0851 70.4618C74.0387 70.5982 76.791 70.3638 77.2013 69.9411C77.6116 69.5183 78.0552 67.5875 78.187 65.6503C78.4574 61.6763 79.0687 61.9615 69.9788 61.8202C66.0753 61.7595 64.7141 61.4722 64.9491 60.7586C65.1356 60.1927 66.8965 59.6941 69.1263 59.5758C76.3625 59.1919 76.6201 59.0256 76.3517 54.911L76.114 51.2665L71.2189 51.4697C67.3653 51.6297 66.3238 51.4308 66.3238 50.5349C66.3238 49.9089 67.0287 49.2126 67.8903 48.9875C69.8751 48.4688 69.8676 47.6021 67.8597 45.4485C65.942 43.3914 64.1867 43.2825 61.6434 45.0627C60.6006 45.7926 57.6336 46.968 55.0501 47.6747C50.0865 49.0325 48.2662 50.7796 51.8153 50.7796C53.1483 50.7796 53.6911 51.0928 53.3404 51.6597C53.0411 52.1438 52.7559 54.3451 52.7068 56.5514C52.6367 59.7026 52.8643 60.5087 53.7682 60.3101C54.4012 60.171 56.604 59.8578 58.6634 59.6141C61.6624 59.2591 62.4077 59.4039 62.4077 60.3416C62.4077 61.2218 61.0335 61.6398 56.8679 62.0267C53.821 62.3097 51.0014 62.3395 50.6021 62.0929C50.1822 61.8336 49.8762 64.0087 49.8762 67.2532C49.8762 72.3121 50.0106 72.8003 51.2469 72.2343C52.0007 71.8891 54.8203 71.4692 57.5126 71.3011C61.2221 71.0695 62.4106 71.2486 62.4197 72.0406C62.4434 74.104 63.8586 75.256 67.6058 76.2621C72.7429 77.6413 74.6174 77.6164 77.7579 76.1272L77.7579 76.1272ZM51.4427 68.4921C51.4427 67.4336 52.3785 67.2157 56.9252 67.2157C60.0581 67.2157 62.4077 67.5511 62.4077 67.9984C62.4077 68.4288 61.2623 68.7849 59.8623 68.7896C58.4623 68.7943 55.9951 69.0166 54.3797 69.2834C51.988 69.6784 51.4427 69.5315 51.4427 68.4921ZM64.7574 67.549C64.7574 66.5831 65.5609 66.3445 68.4777 66.4445C74.2362 66.642 75.0627 66.2205 69.9093 65.7144C64.0437 65.1385 62.8962 63.2974 68.4124 63.313C74.2742 63.3296 75.4778 63.8657 75.5526 66.4936L75.6177 68.781H70.1875C65.7692 68.781 64.7574 68.5515 64.7574 67.549H64.7574ZM51.9787 64.8017C52.4458 64.3349 54.9834 63.7577 57.6178 63.519C61.7105 63.1481 62.4077 63.2717 62.4077 64.3676C62.4077 65.4374 61.4714 65.6503 56.7686 65.6503C52.7167 65.6503 51.3684 65.4114 51.9787 64.8017ZM54.5756 57.5301C54.5756 56.5257 55.3989 56.2583 58.4916 56.2583C60.6455 56.2583 62.4077 56.6105 62.4077 57.041C62.4077 57.4714 61.7469 57.8236 60.9392 57.8236C60.1315 57.8236 58.3693 58.0438 57.0231 58.3128C55.0851 58.7001 54.5756 58.5372 54.5756 57.5301ZM64.7574 57.041C64.7574 56.6105 66.3146 56.2583 68.2178 56.2583C70.121 56.2583 72.2357 56.0445 72.9171 55.7832C73.7301 55.4715 74.156 55.7405 74.156 56.5659C74.156 57.5814 73.2508 57.8236 69.4567 57.8236C66.846 57.8236 64.7574 57.4758 64.7574 57.041ZM54.9672 53.9103C55.2334 53.4798 57.1045 53.133 59.1253 53.1396C61.7861 53.1482 62.4753 53.3608 61.6245 53.9103C60.0493 54.9275 54.338 54.9275 54.9672 53.9103ZM65.149 53.9103C64.8466 53.4214 66.4462 53.1276 69.4105 53.1276C72.052 53.1276 74.156 53.4746 74.156 53.9103C74.156 54.3407 72.2383 54.6929 69.8945 54.6929C67.5507 54.6929 65.4152 54.3407 65.149 53.9103ZM54.5756 50.8418C54.5756 50.4455 55.721 49.8722 57.121 49.5678C58.521 49.2633 60.3617 48.5309 61.2114 47.9402C62.8483 46.8022 65.5406 46.4839 65.5406 47.4283C65.5406 47.7375 64.6047 48.7941 63.4607 49.7763C61.9858 51.0428 60.3911 51.5623 57.9782 51.5623C56.1067 51.5623 54.5756 51.238 54.5756 50.8418ZM40.086 73.4771L42.3371 71.129L39.2535 71.1234C37.5575 71.1202 33.7789 70.8922 30.8565 70.6164C23.2933 69.9027 24.5126 68.4792 33.0993 67.9983L40.086 67.6069V59.7802C40.086 52.5018 39.9763 51.9479 38.5196 51.8737C33.6944 51.6279 33.4287 51.5299 33.4287 49.9968C33.4287 48.2544 34.2378 48.0992 37.8802 49.1431C39.8773 49.7155 40.6116 49.5808 41.631 48.4551C42.8307 47.1303 42.6633 47.026 38.5044 46.5067C36.0875 46.205 30.2561 46.2077 25.5456 46.5127C17.9269 47.0061 16.9811 46.9266 16.9811 45.7927C16.9811 45.0182 16.3335 44.518 15.3309 44.518C14.2286 44.518 13.8221 44.8863 14.1066 45.6272C14.5835 46.8692 13.1001 47.6487 10.2597 47.6487C9.15531 47.6487 8.3657 48.1071 8.3657 48.7482C8.3657 49.5792 9.13085 49.7452 11.4986 49.4278C15.2571 48.9241 15.722 50.2404 12.1473 51.2649C10.7811 51.6564 9.50675 52.446 9.31547 53.0194C9.042 53.8393 9.31077 53.8786 10.5732 53.2034C12.6693 52.0824 14.8425 52.1034 14.463 53.241C14.2986 53.7339 12.5275 54.6592 10.5273 55.2971C8.52702 55.9351 6.70478 56.9406 6.47783 57.5316C5.93691 58.9402 7.49133 58.8913 11.096 57.3862C12.7028 56.7153 14.2034 56.3521 14.4306 56.5791C15.203 57.351 12.1765 61.069 9.48288 62.6571C6.34155 64.5093 5.95665 65.9936 8.75639 65.4588C9.8328 65.2531 11.326 65.5325 12.0747 66.0795C13.3612 67.0196 13.3546 67.1638 11.9542 68.7101C11.1393 69.6099 9.88966 70.3462 9.17721 70.3462C8.46477 70.3462 7.22231 70.8281 6.41619 71.4171C4.9998 72.4521 5.00793 72.5188 6.6581 73.4014C8.67971 74.4825 10.1382 73.8462 13.3359 70.488L15.5648 68.1472L18.2608 69.9754C22.1473 72.611 30.0472 75.0788 36.6108 75.7076C37.284 75.7721 38.8479 74.7682 40.086 73.4768L40.086 73.4771ZM21.0924 68.3506C16.853 66.9802 16.3784 65.9733 18.7877 63.4603C21.4003 60.7353 21.4262 60.1716 18.9391 60.1716C17.7208 60.1716 16.9811 59.7281 16.9811 58.9976C16.9811 58.3519 16.6286 57.8236 16.1979 57.8236C15.7671 57.8236 15.4147 57.4439 15.4147 56.9798C15.4147 56.4814 16.6093 56.2411 18.3321 56.3927C20.6108 56.5934 21.3094 56.3497 21.5224 55.2799C21.7415 54.1802 21.2438 53.9103 18.9966 53.9103C17.4573 53.9103 16.1979 53.5581 16.1979 53.1276C16.1979 52.6971 17.0582 52.3449 18.1097 52.3449C19.1612 52.3449 20.2393 51.9927 20.5056 51.5623C20.7801 51.1184 20.1221 50.7796 18.9854 50.7796C17.883 50.7796 16.9811 50.4274 16.9811 49.9969C16.9811 49.5665 17.8414 49.2143 18.8929 49.2143C19.9444 49.2143 21.0505 48.8168 21.3509 48.3311C21.726 47.7246 22.1158 47.8384 22.5951 48.6942C23.1404 49.668 23.7275 49.7755 25.279 49.1861C28.59 47.9281 31.079 48.2369 31.079 49.9056C31.079 51.4033 29.1062 52.314 25.8179 52.3342C24.1468 52.3446 24.073 52.6622 23.8599 60.7593L23.6384 69.1736L21.0924 68.3506ZM26.0058 60.4382C26.9081 51.6423 29.0329 51.8117 28.5759 60.643C28.3825 64.3788 28.0669 65.2953 26.8972 65.5179C25.5703 65.7704 25.5 65.3695 26.0058 60.4382V60.4382ZM36.3168 65.1449C35.4441 64.2728 35.7018 54.8326 36.6136 54.2694C37.8984 53.476 38.0514 53.9734 38.2939 59.7331C38.5037 64.7176 37.8045 66.6316 36.3168 65.1449ZM13.2129 64.3334C12.415 64.0142 12.4857 63.5918 13.5301 62.4385C15.0743 60.7334 16.9811 60.4755 16.9811 61.9718C16.9811 63.0197 15.4355 64.9156 14.6706 64.8059C14.4337 64.7719 13.7777 64.5593 13.2129 64.3334ZM30.4449 63.498C30.5901 62.7447 31.4041 62.1283 32.2538 62.1283C33.1036 62.1283 33.9176 62.7447 34.0628 63.498C34.2605 64.5239 33.8064 64.8677 32.2538 64.8677C30.7012 64.8677 30.2472 64.5239 30.4449 63.498ZM30.2958 59.7803C30.2958 59.0498 31.0355 58.6063 32.2538 58.6063C33.4722 58.6063 34.2119 59.0498 34.2119 59.7803C34.2119 60.5108 33.4722 60.9543 32.2538 60.9543C31.0355 60.9543 30.2958 60.5108 30.2958 59.7803ZM30.2958 55.0843C30.2958 54.3538 31.0355 53.9103 32.2538 53.9103C33.4722 53.9103 34.2119 54.3538 34.2119 55.0843C34.2119 55.8148 33.4722 56.2583 32.2538 56.2583C31.0355 56.2583 30.2958 55.8148 30.2958 55.0843ZM25.5845 38.5782C25.5993 36.5579 31.2301 31.2128 33.3436 31.2128C34.1958 31.2128 35.8448 31.5744 37.0079 32.0163C38.6578 32.6432 39.5563 32.5358 41.0956 31.5279C42.8519 30.3779 42.9237 30.155 41.749 29.498C41.0232 29.0921 37.2487 28.5541 33.3612 28.3024C26.3564 27.8489 26.2891 27.8248 25.8469 25.6155C25.4621 23.6932 25.0366 23.3861 22.7573 23.3861C20.8954 23.3861 20.114 23.0286 20.114 22.1766C20.114 21.2261 20.6816 21.0736 22.7655 21.4643C24.363 21.7637 25.6268 21.6223 25.9446 21.1084C26.277 20.571 25.6581 20.251 24.2721 20.2434C21.5614 20.2286 19.5567 19.1266 20.8206 18.3461C21.3012 18.0492 22.3577 18.0167 23.1683 18.2738C24.3003 18.6329 24.8342 18.1907 25.4702 16.3677C25.9709 14.9322 26.0048 13.994 25.5557 13.994C24.1375 13.994 23.6503 14.3908 23.8739 15.3637C24.0095 15.9536 23.2882 16.342 22.0571 16.342C20.3894 16.342 20.0604 16.0195 20.2605 14.581C20.4209 13.4286 20.0995 12.82 19.3307 12.82C18.5619 12.82 18.2406 13.4286 18.401 14.581C18.6002 16.0129 18.2708 16.342 16.6387 16.342C15.1536 16.342 14.6314 15.9349 14.6314 14.7767C14.6314 13.9158 14.279 13.2114 13.8482 13.2114C13.4174 13.2114 13.065 14.4228 13.065 15.9035C13.065 18.4442 13.2301 18.6109 16.0021 18.8675C18.8065 19.1271 18.8418 19.1646 16.7853 19.6974C15.6007 20.0043 13.7503 20.4382 12.6734 20.6617C11.5965 20.8851 10.7153 21.4511 10.7153 21.9194C10.7153 22.3877 11.219 22.5778 11.8346 22.3417C12.4501 22.1057 14.2124 21.6766 15.7506 21.3882C18.0176 20.9632 18.5475 21.1028 18.5475 22.125C18.5475 23.0745 17.7735 23.3861 15.4147 23.3861C12.3972 23.3861 12.2827 23.4798 12.3067 25.9298C12.3292 28.2122 12.4384 28.3328 13.3721 27.1038C14.8261 25.1896 18.5475 25.2692 18.5475 27.2145C18.5475 28.411 17.5713 28.8888 13.4566 29.7061C9.40734 30.5104 8.36569 31.0113 8.36569 32.154C8.36569 33.6782 9.40294 33.6324 15.2658 31.849C17.701 31.1083 18.0195 31.243 20.5199 34.0717C21.9838 35.7278 23.1963 37.6704 23.2142 38.3885C23.2323 39.1066 23.4721 40.2808 23.7474 40.9978C24.1468 42.0377 24.382 42.0903 24.9103 41.2575C25.2745 40.6833 25.5779 39.4777 25.5845 38.5782H25.5845ZM22.9617 33.222C21.2178 30.5624 21.287 30.4301 24.4217 30.4301C27.5217 30.4301 28.0194 31.761 25.703 33.8559C24.3222 35.1046 24.1735 35.0703 22.9617 33.222ZM20.114 26.5168C20.114 24.88 20.7211 24.6327 22.7912 25.4265C24.772 26.1861 24.2586 28.0821 22.072 28.0821C20.6361 28.0821 20.114 27.6647 20.114 26.5168ZM39.9984 39.9189C41.2164 38.574 41.2212 38.4091 40.0558 37.9622C39.3558 37.6938 38.1951 37.472 37.4765 37.4694C36.7579 37.4667 35.1604 36.9384 33.9266 36.2954C31.1706 34.859 31.079 34.8573 31.079 36.2434C31.079 37.6183 35.7071 41.367 37.4192 41.3789C38.1063 41.3835 39.2669 40.7266 39.9984 39.9189L39.9984 39.9189ZM16.0021 38.0038C17.6985 36.4779 18.3928 34.3249 17.1769 34.3609C16.8538 34.3704 15.7084 35.067 14.6314 35.9088C13.5545 36.7506 11.8804 37.4472 10.9112 37.4568C8.83095 37.4772 8.60068 38.6552 10.4722 39.7018C12.0744 40.5978 13.6594 40.1111 16.0021 38.0038ZM54.7249 37.6699C55.8298 36.4861 57.1417 34.7251 57.6403 33.7565C58.8929 31.323 59.6887 31.5354 61.9879 34.9165L63.9742 37.8376V35.2329C63.9742 33.8004 63.3714 31.6087 62.6348 30.3626C61.4032 28.2791 61.3933 27.8286 62.5118 24.7631C63.6112 21.7499 63.9791 21.4294 66.3385 21.4294H68.9488L68.7566 26.7276C68.603 30.9609 68.893 32.557 70.1992 34.669C72.26 38.0011 75.0098 39.8222 77.9805 39.8222C84.881 39.8222 84.3493 36.3133 77.2203 34.806C70.7032 33.428 68.8286 26.7209 73.4807 21.4261C75.8414 18.7393 75.88 18.5861 74.4597 17.5383C73.5424 16.8615 72.6987 16.7245 72.2371 17.1774C71.8279 17.5789 69.8013 17.9074 67.7336 17.9074C64.1095 17.9074 63.9742 17.8259 63.9742 15.6431C63.9742 13.2575 62.0931 11.8206 61.091 13.4408C60.77 13.9598 60.6091 15.3532 60.7334 16.5373C60.9461 18.5642 60.7765 18.6901 57.8315 18.6901C53.5038 18.6901 52.2259 19.3337 52.2259 21.5132C52.2259 23.7334 52.059 23.7029 55.7578 22.1586C59.2453 20.7024 60.4562 21.455 59.3411 24.3858C58.6971 26.0786 57.9968 26.4642 55.2001 26.6656C52.1814 26.8831 51.8087 27.1301 51.5864 29.0609C51.353 31.0883 51.4585 31.1681 53.3996 30.4306C54.5332 29.9999 55.7902 29.6475 56.193 29.6475C58.7121 29.6475 54.239 34.725 51.0554 35.4791C48.0309 36.1956 46.7276 37.305 47.2653 38.7054C48.0228 40.6781 52.4969 40.057 54.7249 37.6699H54.7249ZM37.6804 26.0695C38.4882 25.2623 38.9516 23.245 39.0287 20.1995C39.0933 17.6474 39.1814 15.1191 39.2245 14.5811C39.2819 13.8646 37.9399 13.6775 34.2119 13.882C31.4119 14.0356 29.0415 14.2324 28.9444 14.3194C28.8472 14.4064 28.9834 16.297 29.2469 18.5207C29.7729 22.9589 31.079 23.3256 31.079 19.0352C31.079 16.496 31.2307 16.3421 33.7331 16.3421C36.1604 16.3421 36.4324 16.5829 36.9162 19.16C37.5896 22.747 35.9236 24.7627 31.975 25.1384C29.1652 25.4057 29.1513 25.4238 31.079 26.3051C33.8653 27.5789 36.2553 27.4937 37.6804 26.0696L37.6804 26.0695Z" fill="#C92E40"/>
</g>
<defs>
<clipPath id="clip0">
<rect width="89" height="89" fill="white"/>
</clipPath>
</defs>
</svg>
